<svg width="587" height="626" viewBox="0 0 587 626" fill="none" xmlns="http://www.w3.org/2000/svg">
<path fill-rule="evenodd" clip-rule="evenodd" d="M293.279 430.5L194.779 602C182.76 615.422 174.071 620.799 152.779 624H55.7787L5.77869 538C-2.19366 515.362 -2.69092 502.069 15.2787 475.5L108.779 312.5L9.77869 141C-1.59082 118.474 -3.52051 105.261 9.77869 79.5L55.7787 0.5H155.779C176.081 5.59723 184.819 11.4072 195.779 27L293.779 195.5L388.779 30.5C400.8 12.4626 409.952 5.6443 431.779 1H531.279L582.279 89.5C587.32 110.347 588.649 121.968 575.779 142L536.279 211L578.279 287C586.696 309.568 587.136 322.086 574.779 344L535.279 412L575.279 481.5C586.906 502.35 589.756 514.91 579.279 541L531.279 625H430.279C412.926 621.843 404.467 616.108 390.779 601.5L293.279 430.5ZM234.779 328L74.2787 609.5L159.279 609C171.617 606.088 175.704 602.62 180.779 595L284.779 415.5L234.779 328ZM284.279 211L234.779 296L73.2787 17H157.279C169.97 19.2539 174.872 23.0512 181.279 32.5L284.279 211ZM565.779 129L410.779 400L373.779 334C365.379 316.804 365.477 305.718 378.779 282L526.779 24.5L565.779 92C574.022 104.792 574.09 112.881 565.779 129ZM568.779 527.5L526.279 601.5L486.779 532.5C482.201 518.441 482.358 510.559 486.779 496.5L526.279 428L568.779 500C571.487 511.84 572.913 518.441 568.779 527.5Z" fill="#141414"/>
</svg>
